<svg width="1024" height="1028" viewBox="0 0 1024 1028" fill="none" xmlns="http://www.w3.org/2000/svg">
<g clip-path="url(#clip0_153_21)">
<rect width="1024" height="1028" fill="white"/>
<g clip-path="url(#clip1_153_21)">
<path d="M899.559 575.62C886.776 656.518 849.032 731.115 790.022 790.137C716.291 863.885 618.205 904.546 513.878 904.546C409.551 904.546 311.526 863.945 237.734 790.137L275.357 752.506H110.93V916.969L150.552 877.337C243.55 970.355 371.989 1027.86 513.878 1027.86C655.767 1027.86 784.267 970.355 877.203 877.337C956.509 798.015 1010 692.877 1024 575.56H899.559V575.62Z" fill="#2BAD70"/>
<path d="M243.308 575.62C255.061 627.492 281.294 673.849 317.645 710.208C367.869 760.444 437.239 791.47 513.878 791.47C590.518 791.47 659.887 760.383 710.111 710.208C746.462 673.849 772.635 627.492 784.449 575.62H655.161C647.406 593.375 636.38 609.373 622.87 622.947C594.94 650.883 556.408 668.153 513.939 668.153C471.469 668.153 432.877 650.883 405.008 622.947C391.497 609.434 380.471 593.375 372.716 575.62C364.416 556.713 359.812 535.868 359.812 513.931C359.812 491.995 364.416 471.149 372.716 452.243C380.471 434.487 391.497 418.49 405.008 404.916C432.937 376.98 471.469 359.71 513.939 359.71C556.408 359.71 595.001 376.98 622.87 404.916C636.38 418.429 647.406 434.487 655.161 452.243H784.449C772.695 400.371 746.462 354.013 710.111 317.655C659.887 267.419 590.518 236.393 513.878 236.393C437.239 236.393 367.869 267.479 317.645 317.655C281.294 354.013 255.121 400.371 243.308 452.243H128.136C140.92 371.344 178.664 296.748 237.673 237.726C311.405 163.978 409.491 123.317 513.817 123.317C618.144 123.317 716.17 163.917 789.962 237.726L751.369 276.327H915.796V111.864L877.143 150.525C784.206 57.5075 655.767 0 513.878 0C371.989 0 243.489 57.5075 150.492 150.525C71.1868 229.848 17.6907 335.046 3.69566 452.303C1.27228 472.543 0 493.086 0 513.992C0 534.898 1.27228 555.441 3.69566 575.681H243.308V575.62Z" fill="#2BAD70"/>
</g>
</g>
<defs>
<clipPath id="clip0_153_21">
<rect width="1024" height="1028" fill="white"/>
</clipPath>
<clipPath id="clip1_153_21">
<rect width="1024" height="1027.92" fill="white"/>
</clipPath>
</defs>
</svg>
